<svg width="840.5" height="427.81293" xmlns="http://www.w3.org/2000/svg">

 <g>
  <title>background</title>
  <rect fill="none" id="canvas_background" height="402" width="582" y="-1" x="-1"/>
 </g>
 <g>
  <title>Layer 1</title>
  <ellipse id="svg_1" fill="#d6e4f0" ry="59.37437" rx="29.09932" cy="328.665" cx="180.87223"/>
  <path id="svg_2" fill="#3f3d56" d="m183.55943,425.851256c-11.65458,-69.92526 -0.11734,-139.59789 0.00056,-140.29293l2.267,0.384c-0.11734,0.69168 -11.58834,69.99825 0.00056,139.53165l-2.26812,0.37728z"/>
  <rect id="svg_3" fill="#3f3d56" transform="rotate(-28.141599655151367 -399.7521057128906,6.286940097808801) " height="2.29972" width="29.84136" y="565.23312" x="-41.045796"/>
  <rect id="svg_4" fill="#3f3d56" transform="rotate(-61.842041015625 -497.1341247558595,368.28466796874994) " height="29.84239" width="2.29972" y="920.513798" x="-152.430325"/>
  <rect id="svg_5" fill="#3f3d56" height="165.09473" width="47.69403" y="3.9629" x="720.05882"/>
  <polygon id="svg_6" fill="#163172" points="799.25 138 683.25 0 450.404 2.129 309.156 139.707 312.01 141.542 310.991 141.542 310.991 427.706 798.937 427.706 798.937 141.542 799.25 138"/>
  <polygon id="svg_7" fill="#1e56a0" points="683.371 0.294 538.455 170.193 538.455 427.706 798.937 427.706 798.937 137.873 683.371 0.294"/>
  <rect id="svg_8" fill="#3f3d56" height="47.02019" width="53.19723" y="285.29778" x="643.01459"/>
  <rect id="svg_9" fill="#3f3d56" height="46.27453" width="53.19723" y="203.91097" x="643.01459"/>
  <rect id="svg_10" fill="#fff" height="47.02019" width="53.19723" y="285.29778" x="643.01459"/>
  <rect id="svg_11" fill="#fff" height="46.27453" width="53.19723" y="203.91097" x="643.01459"/>
  <path id="svg_12" fill="#e6e6e6" d="m502.32942,419.315326s1.14042,-23.89608 24.51916,-21.11849"/>
  <circle id="svg_13" fill="#1e56a0" r="11.70089" cy="384.87436" cx="495.72365"/>
  <rect id="svg_14" fill="#e6e6e6" height="23.12018" width="3.30288" y="404.57796" x="493.81974"/>
  <ellipse id="svg_15" fill="#1e56a0" ry="116.12927" rx="56.91484" cy="237.09638" cx="110.9552"/>
  <path id="svg_16" fill="#3f3d56" d="m117.29464,427.001056c-22.76458,-136.5853 -0.22962,-272.67317 0.00057,-274.03181l2.267,0.384c-0.22962,1.35528 -22.69834,137.0771 0.00056,273.27052l-2.26813,0.37729z"/>
  <rect id="svg_17" fill="#3f3d56" transform="rotate(-28.141599655151367 -361.2329406738282,-32.184280395507756) " height="2.29972" width="58.36761" y="430.68498" x="-74.275851"/>
  <rect id="svg_18" fill="#3f3d56" transform="rotate(-61.84257888793945 -462.7509765625,247.02458190917972) " height="58.36761" width="2.29972" y="695.657442" x="-202.081007"/>
  <ellipse id="svg_19" fill="#1e56a0" ry="158.91374" rx="77.88347" cy="167.20096" cx="245.75351"/>
  <path id="svg_20" fill="#3f3d56" d="m254.84671,427.001056c-31.1399,-186.83717 -0.3144,-372.9922 0.00056,-374.85051l2.267,0.384c-0.3144,1.85494 -31.07366,187.64393 0.00056,374.08922l-2.26812,0.37729z"/>
  <rect id="svg_21" fill="#3f3d56" transform="rotate(-28.141599655151367 -309.62057495117193,27.14912986755369) " height="2.29972" width="79.87126" y="416.72431" x="110.754245"/>
  <rect id="svg_22" fill="#3f3d56" transform="rotate(-61.84328842163086 -337.0430603027343,320.4719848632813) " height="79.87126" width="2.29972" y="690.142055" x="47.78341"/>
  <rect id="svg_23" fill="#3f3d56" height="2" width="840.5" y="425.81293"/>
  <rect id="svg_24" fill="#3f3d56" height="47.02019" width="53.19723" y="272.82126" x="406.60242"/>
  <rect id="svg_25" fill="#3f3d56" height="46.27453" width="53.19723" y="191.43445" x="406.60242"/>
  <rect id="svg_26" fill="#fff" height="47.02019" width="53.19723" y="272.82126" x="406.60242"/>
  <rect id="svg_27" fill="#fff" height="46.27453" width="53.19723" y="191.43445" x="406.60242"/>
 </g>
</svg>